<mxfile host="app.diagrams.net" agent="Mozilla/5.0 (Windows NT 10.0; Win64; x64) AppleWebKit/537.36 (KHTML, like Gecko) Chrome/132.0.0.0 Safari/537.36" version="25.0.1">
  <diagram name="Seite-1" id="RTWNjKxDMfU1QAlHwbVm">
    <mxGraphModel dx="1290" dy="713" grid="1" gridSize="10" guides="1" tooltips="1" connect="1" arrows="1" fold="1" page="1" pageScale="1" pageWidth="827" pageHeight="1169" math="0" shadow="0">
      <root>
        <mxCell id="0" />
        <mxCell id="1" parent="0" />
        <mxCell id="g7tj3xLp_N1n6tfv9Avd-4" value="" style="rounded=0;whiteSpace=wrap;html=1;" vertex="1" parent="1">
          <mxGeometry x="160" y="30" width="330" height="310" as="geometry" />
        </mxCell>
        <mxCell id="g7tj3xLp_N1n6tfv9Avd-2" value="web-1" style="rounded=1;whiteSpace=wrap;html=1;" vertex="1" parent="1">
          <mxGeometry x="190" y="130" width="150" height="70" as="geometry" />
        </mxCell>
        <mxCell id="g7tj3xLp_N1n6tfv9Avd-1" value="redis" style="rounded=1;whiteSpace=wrap;html=1;" vertex="1" parent="1">
          <mxGeometry x="190" y="50" width="150" height="70" as="geometry" />
        </mxCell>
        <mxCell id="g7tj3xLp_N1n6tfv9Avd-6" value="(Project) composetest" style="text;html=1;align=center;verticalAlign=middle;whiteSpace=wrap;rounded=0;" vertex="1" parent="1">
          <mxGeometry x="340" y="30" width="140" height="30" as="geometry" />
        </mxCell>
        <mxCell id="g7tj3xLp_N1n6tfv9Avd-7" value="compose.yaml" style="shape=note;whiteSpace=wrap;html=1;backgroundOutline=1;darkOpacity=0.05;" vertex="1" parent="1">
          <mxGeometry x="190" y="230" width="80" height="90" as="geometry" />
        </mxCell>
        <mxCell id="g7tj3xLp_N1n6tfv9Avd-8" value="infra.yaml" style="shape=note;whiteSpace=wrap;html=1;backgroundOutline=1;darkOpacity=0.05;" vertex="1" parent="1">
          <mxGeometry x="290" y="240" width="60" height="80" as="geometry" />
        </mxCell>
        <mxCell id="g7tj3xLp_N1n6tfv9Avd-9" value="" style="endArrow=classic;html=1;rounded=0;" edge="1" parent="1" source="g7tj3xLp_N1n6tfv9Avd-8">
          <mxGeometry width="50" height="50" relative="1" as="geometry">
            <mxPoint x="210" y="350" as="sourcePoint" />
            <mxPoint x="260" y="300" as="targetPoint" />
          </mxGeometry>
        </mxCell>
      </root>
    </mxGraphModel>
  </diagram>
</mxfile>
